<?xml version="1.0" ?><!DOCTYPE svg  PUBLIC '-//W3C//DTD SVG 1.1//EN'  'http://www.w3.org/Graphics/SVG/1.1/DTD/svg11.dtd'><svg height="100%" style="fill-rule:evenodd;clip-rule:evenodd;stroke-linejoin:round;stroke-miterlimit:2;" version="1.1" viewBox="0 0 24 24" width="100%" xml:space="preserve" xmlns="http://www.w3.org/2000/svg" xmlns:serif="http://www.serif.com/" xmlns:xlink="http://www.w3.org/1999/xlink"><path d="M23,7c0,-3.311 -2.689,-6 -6,-6l-10,0c-3.311,0 -6,2.689 -6,6l0,10c0,3.311 2.689,6 6,6l10,-0c3.311,-0 6,-2.689 6,-6l0,-10Zm-2,-0l0,10c0,2.208 -1.792,4 -4,4c0,0 -10,0 -10,0c-2.208,0 -4,-1.792 -4,-4c0,0 0,-10 0,-10c0,-2.208 1.792,-4 4,-4c-0,0 10,0 10,0c2.208,0 4,1.792 4,4Z"/><path d="M10.856,8.591c0.113,-0.623 0.353,-1.394 0.762,-2.044c0.375,-0.596 0.888,-1.089 1.536,-1.356c0.948,-0.389 2.286,-0.349 4.039,0.959c-0,0 1.874,0.286 1.932,0.299c0.378,0.087 0.633,0.316 0.741,0.712c0.018,0.066 0.145,0.426 -0.155,0.855c-0.102,0.145 -0.81,0.972 -1.246,1.422c-0.055,0.479 -0.291,2.334 -0.752,3.761c-0.403,1.247 -1.046,2.479 -2.05,3.349c-1.6,1.386 -4.093,2.424 -6.515,2.483c-1.695,0.041 -3.351,-0.392 -4.676,-1.456c-0.297,-0.238 -0.433,-0.625 -0.35,-0.997c0.083,-0.371 0.369,-0.664 0.74,-0.754c-0,-0 1.683,-0.409 3.023,-0.934c-1.084,-0.824 -1.892,-1.748 -2.411,-2.808c-0.71,-1.45 -0.897,-3.168 -0.435,-5.278c0.206,-0.678 0.793,-1.043 1.034,-1.044c0.143,-0 0.407,0.025 0.673,0.286c0.014,0.014 1.405,2.059 4.11,2.545Zm6.08,-0.449c-0.099,0.083 -0.21,0.205 -0.296,0.393c-0.063,0.136 -0.138,0.424 -0.196,0.833c-0.11,0.768 -0.251,2.186 -0.745,3.538c-0.291,0.795 -0.703,1.574 -1.346,2.131c-1.076,0.932 -2.657,1.661 -4.284,1.908c-0.686,0.104 -1.383,0.123 -2.052,0.027c0.275,-0.096 0.545,-0.196 0.799,-0.301c0.781,-0.319 1.425,-0.7 1.733,-1.038c0.204,-0.224 0.295,-0.529 0.248,-0.828c-0.047,-0.299 -0.227,-0.561 -0.49,-0.712c-1.423,-0.818 -2.469,-1.732 -3.036,-2.891c-0.314,-0.64 -0.475,-1.35 -0.484,-2.149c1.024,0.766 2.388,1.507 4.756,1.658c0.446,0.029 0.816,-0.274 1.006,-0.662c0.1,-0.204 0.172,-0.446 0.229,-0.645c0.062,-0.212 0.166,-1.18 0.504,-1.745c0.187,-0.312 0.431,-0.601 0.806,-0.668c0.529,-0.095 1.183,0.187 2.071,0.887c0.121,0.096 0.264,0.162 0.416,0.193c-0,0 0.144,0.029 0.361,0.071Z"/></svg>