<?xml version="1.0" encoding="UTF-8"?><svg id="Layer_2" xmlns="http://www.w3.org/2000/svg" viewBox="0 0 35.55 35.45"><defs><style>.cls-1{fill:blue;}.cls-2{fill:#fff;}.cls-3{fill:#ff0;}.cls-4{fill:red;}.cls-5{fill:none;stroke:#000;stroke-miterlimit:10;stroke-width:.25px;}</style></defs><g id="Layer_1-2"><g><g><path d="M17.82,17.73v17.6c-3.2,0-6.2-.9-8.8-2.3-2.7-1.5-4.9-3.8-6.5-6.5l15.3-8.8Z"/><path class="cls-2" d="M17.82,17.73L2.62,26.52C1.12,23.93,.22,20.93,.22,17.73H17.82Z"/><path class="cls-4" d="M17.82,35.32V17.73h17.6c-.1,9.7-7.9,17.6-17.6,17.6Z"/><path class="cls-3" d="M35.32,17.73H17.82V.12c9.7,0,17.5,7.9,17.5,17.6Z"/><path class="cls-1" d="M17.82,.12V17.73H.22v-.1C.22,7.93,8.12,.12,17.82,.12Z"/></g><g><path class="cls-5" d="M17.82,.12c9.7,0,17.6,7.9,17.6,17.6"/><polyline class="cls-5" points="17.82 35.32 17.82 17.73 17.82 17.73"/><line class="cls-5" x1="17.82" y1="17.73" x2=".22" y2="17.73"/><path class="cls-5" d="M17.82,17.73h17.6c0,9.7-7.9,17.6-17.6,17.6-3.2,0-6.2-.9-8.8-2.3-2.7-1.5-4.9-3.8-6.5-6.5C1.02,23.93,.12,20.93,.12,17.73v-.1C.12,7.93,8.02,.13,17.73,.13l.1,17.6h0Z"/><line class="cls-5" x1="2.52" y1="26.52" x2="17.82" y2="17.73"/></g></g></g></svg>