<?xml version="1.0" encoding="utf-8"?>
<!-- Generator: Adobe Illustrator 26.3.1, SVG Export Plug-In . SVG Version: 6.00 Build 0)  -->
<svg version="1.1" id="Layer_1" xmlns="http://www.w3.org/2000/svg" xmlns:xlink="http://www.w3.org/1999/xlink" x="0px" y="0px"
	 viewBox="0 0 223.8 70" style="enable-background:new 0 0 223.8 70;" xml:space="preserve">
<style type="text/css">
	.st0{enable-background:new    ;}
	.st1{fill:#FFFFFF;}
	.st2{fill:#FF0000;}
	.st3{fill:#FFFF00;}
	.st4{fill:#0000FF;}
	.st5{fill:none;stroke:#000000;stroke-width:0.25;stroke-miterlimit:10;}
</style>
<g class="st0">
	<path d="M87.1,25.2l-2.2,18.1h-2.1l1.6-13.4c0-0.2,0.1-0.4,0.1-0.6c0-0.2,0.1-0.4,0.1-0.6l-7,11.4c-0.2,0.4-0.5,0.5-0.9,0.5h-0.3
		c-0.2,0-0.3,0-0.5-0.1c-0.1-0.1-0.2-0.2-0.3-0.4l-4.4-11.4c0,0.2,0,0.4,0,0.6s0,0.4,0,0.5l-1.6,13.4h-2.1l2.2-18.1h1.7
		c0.2,0,0.4,0,0.5,0.1c0.1,0.1,0.2,0.2,0.3,0.3L76.6,37c0.1,0.2,0.1,0.3,0.2,0.5c0,0.2,0.1,0.3,0.1,0.5c0.1-0.2,0.2-0.3,0.3-0.5
		s0.2-0.3,0.3-0.5l7.1-11.4c0.1-0.2,0.3-0.3,0.4-0.3c0.1-0.1,0.3-0.1,0.5-0.1H87.1z"/>
	<path d="M92.5,30.5l-1.5,12.8h-2.2l1.5-12.8H92.5z M93.3,26.5c0,0.2,0,0.4-0.1,0.6c-0.1,0.2-0.2,0.4-0.4,0.5
		c-0.1,0.1-0.3,0.3-0.5,0.3s-0.4,0.1-0.6,0.1c-0.2,0-0.4,0-0.6-0.1c-0.2-0.1-0.3-0.2-0.5-0.3c-0.1-0.1-0.3-0.3-0.3-0.5
		c-0.1-0.2-0.1-0.4-0.1-0.6c0-0.2,0-0.4,0.1-0.6s0.2-0.4,0.3-0.5c0.1-0.1,0.3-0.3,0.5-0.4c0.2-0.1,0.4-0.1,0.6-0.1
		c0.2,0,0.4,0,0.6,0.1c0.2,0.1,0.4,0.2,0.5,0.3c0.1,0.1,0.3,0.3,0.3,0.5S93.3,26.3,93.3,26.5z"/>
	<path d="M97.8,33.4c0.7-1,1.4-1.7,2.2-2.3c0.8-0.5,1.6-0.8,2.5-0.8c0.5,0,1,0.1,1.4,0.3c0.4,0.2,0.7,0.5,1,0.9s0.4,0.9,0.5,1.5
		c0.1,0.6,0.1,1.3,0,2l-1,8.1h-2.2l1-8.1c0.1-1,0.1-1.8-0.2-2.2c-0.2-0.5-0.7-0.7-1.4-0.7c-0.4,0-0.8,0.1-1.2,0.3
		c-0.4,0.2-0.8,0.5-1.2,0.9c-0.4,0.4-0.7,0.8-1.1,1.4s-0.6,1.1-0.9,1.8l-0.8,6.7h-2.2l2.2-18.6h2.2L97.8,33.4z"/>
	<path d="M115.6,39.9c-0.3,0.5-0.6,1-1,1.5c-0.3,0.4-0.7,0.8-1.1,1.1c-0.4,0.3-0.8,0.5-1.2,0.7c-0.4,0.2-0.9,0.3-1.3,0.3
		c-0.5,0-1-0.1-1.4-0.3c-0.4-0.2-0.8-0.5-1.1-0.9c-0.3-0.4-0.5-0.9-0.7-1.4c-0.2-0.6-0.2-1.2-0.2-1.9c0-0.8,0.1-1.5,0.3-2.2
		c0.2-0.7,0.5-1.4,0.8-2c0.3-0.6,0.8-1.2,1.3-1.8c0.5-0.5,1-1,1.6-1.4c0.6-0.4,1.2-0.7,1.9-0.9c0.7-0.2,1.4-0.3,2.2-0.3
		c0.5,0,1.1,0,1.6,0.1c0.5,0.1,1,0.2,1.5,0.5l-1.5,12.4h-1.2c-0.3,0-0.5-0.1-0.6-0.2c-0.1-0.2-0.2-0.3-0.2-0.6L115.6,39.9z
		 M116.5,32.1c-0.2,0-0.4-0.1-0.5-0.1s-0.4,0-0.5,0c-0.5,0-1,0.1-1.5,0.2s-0.9,0.4-1.3,0.7s-0.8,0.6-1.1,1.1
		c-0.3,0.4-0.6,0.9-0.9,1.3c-0.2,0.5-0.4,1-0.6,1.6c-0.1,0.6-0.2,1.1-0.2,1.7c0,2,0.6,3,1.9,3c0.4,0,0.8-0.1,1.2-0.4
		c0.4-0.3,0.8-0.6,1.1-1.1c0.4-0.5,0.7-1,1-1.6c0.3-0.6,0.6-1.3,0.8-2.1L116.5,32.1z"/>
</g>
<g class="st0">
	<path d="M142.6,33c0,1.1-0.1,2-0.3,3s-0.5,1.8-0.9,2.5c-0.4,0.8-0.8,1.4-1.4,2c-0.5,0.6-1.1,1.1-1.8,1.5c-0.7,0.4-1.4,0.7-2.2,0.9
		c-0.8,0.2-1.6,0.3-2.5,0.3h-6l2.2-17.8h6c1.1,0,2,0.2,2.8,0.5c0.8,0.4,1.6,0.9,2.2,1.5c0.6,0.7,1,1.5,1.4,2.4
		C142.4,30.8,142.6,31.9,142.6,33z M141.3,33c0-1-0.1-1.9-0.4-2.7c-0.3-0.8-0.6-1.5-1.1-2.1c-0.5-0.6-1.1-1-1.8-1.3
		c-0.7-0.3-1.5-0.5-2.4-0.5h-4.7l-2,15.8h4.7c1.1,0,2.1-0.2,3.1-0.6c0.9-0.4,1.7-1,2.4-1.8s1.2-1.8,1.6-2.9S141.3,34.5,141.3,33z"/>
	<path d="M154,41c-0.4,0.4-0.8,0.8-1.2,1.1s-0.8,0.6-1.2,0.8s-0.8,0.4-1.2,0.4c-0.4,0.1-0.9,0.1-1.4,0.1c-0.7,0-1.3-0.1-1.9-0.3
		c-0.5-0.2-1-0.6-1.4-1c-0.4-0.4-0.7-0.9-0.8-1.6c-0.2-0.6-0.3-1.3-0.3-2c0-0.6,0.1-1.3,0.2-1.9c0.1-0.6,0.3-1.3,0.6-1.8
		c0.2-0.6,0.6-1.1,0.9-1.7c0.4-0.5,0.8-1,1.3-1.3c0.5-0.4,1-0.7,1.6-0.9s1.2-0.3,1.9-0.3c0.6,0,1.1,0.1,1.6,0.3s0.8,0.4,1,0.6
		c0.3,0.3,0.5,0.5,0.6,0.8c0.1,0.3,0.2,0.6,0.2,0.8c0,0.3,0,0.7-0.1,1c-0.1,0.3-0.3,0.6-0.5,0.9s-0.6,0.5-1,0.8s-0.9,0.5-1.5,0.7
		c-0.6,0.2-1.4,0.4-2.3,0.6c-0.9,0.2-1.9,0.3-3.1,0.4c0,0.2,0,0.3,0,0.5c0,0.2,0,0.3,0,0.5c0,1.3,0.3,2.2,0.9,2.9s1.4,1.1,2.6,1.1
		c0.4,0,0.8,0,1.2-0.1c0.4-0.1,0.7-0.2,1-0.4c0.3-0.2,0.5-0.3,0.7-0.5c0.2-0.2,0.4-0.3,0.6-0.5s0.3-0.3,0.4-0.4s0.2-0.1,0.3-0.1
		s0.2,0,0.3,0.1L154,41z M150.9,31.5c-0.7,0-1.3,0.1-1.8,0.4c-0.5,0.3-1,0.7-1.4,1.1c-0.4,0.5-0.8,1-1,1.7c-0.3,0.6-0.5,1.3-0.6,2
		c1.1-0.1,2-0.3,2.8-0.4c0.8-0.2,1.4-0.3,2-0.5s1-0.4,1.3-0.6c0.3-0.2,0.6-0.4,0.8-0.6c0.2-0.2,0.3-0.4,0.4-0.7
		c0.1-0.2,0.1-0.5,0.1-0.7c0-0.2,0-0.4-0.1-0.6c-0.1-0.2-0.2-0.4-0.4-0.6s-0.4-0.3-0.7-0.4C151.7,31.5,151.3,31.5,150.9,31.5z"/>
	<path d="M158.6,34.9c0.3-0.8,0.7-1.5,1.1-2.1c0.4-0.6,0.8-1.1,1.3-1.4c0.5-0.4,0.9-0.6,1.4-0.7s1,0,1.5,0.2l-0.2,1.1
		c-0.6-0.2-1.1-0.3-1.6-0.2s-1,0.4-1.4,0.8c-0.5,0.4-0.9,1-1.2,1.7c-0.4,0.7-0.7,1.6-1,2.6l-0.8,6.4h-1.2l1.5-12.6h0.5
		c0.3,0,0.4,0.2,0.4,0.5L158.6,34.9z"/>
	<path d="M173.4,41c-0.4,0.4-0.8,0.8-1.2,1.1c-0.4,0.3-0.8,0.6-1.2,0.8s-0.8,0.4-1.2,0.4c-0.4,0.1-0.9,0.1-1.4,0.1
		c-0.7,0-1.3-0.1-1.9-0.3c-0.5-0.2-1-0.6-1.4-1c-0.4-0.4-0.7-0.9-0.8-1.6c-0.2-0.6-0.3-1.3-0.3-2c0-0.6,0.1-1.3,0.2-1.9
		c0.1-0.6,0.3-1.3,0.6-1.8c0.2-0.6,0.6-1.1,0.9-1.7c0.4-0.5,0.8-1,1.3-1.3c0.5-0.4,1-0.7,1.6-0.9c0.6-0.2,1.2-0.3,1.9-0.3
		c0.6,0,1.1,0.1,1.6,0.3c0.4,0.2,0.8,0.4,1,0.6c0.3,0.3,0.5,0.5,0.6,0.8c0.1,0.3,0.2,0.6,0.2,0.8c0,0.3,0,0.7-0.1,1
		c-0.1,0.3-0.3,0.6-0.5,0.9s-0.6,0.5-1,0.8c-0.4,0.2-0.9,0.5-1.5,0.7c-0.6,0.2-1.4,0.4-2.3,0.6c-0.9,0.2-1.9,0.3-3.1,0.4
		c0,0.2,0,0.3,0,0.5s0,0.3,0,0.5c0,1.3,0.3,2.2,0.9,2.9s1.4,1.1,2.6,1.1c0.4,0,0.8,0,1.2-0.1s0.7-0.2,1-0.4c0.3-0.2,0.5-0.3,0.7-0.5
		c0.2-0.2,0.4-0.3,0.6-0.5s0.3-0.3,0.4-0.4s0.2-0.1,0.3-0.1c0.1,0,0.2,0,0.3,0.1L173.4,41z M170.3,31.5c-0.7,0-1.3,0.1-1.8,0.4
		c-0.5,0.3-1,0.7-1.4,1.1c-0.4,0.5-0.8,1-1,1.7c-0.3,0.6-0.5,1.3-0.6,2c1.1-0.1,2-0.3,2.8-0.4c0.8-0.2,1.4-0.3,2-0.5
		c0.5-0.2,1-0.4,1.3-0.6c0.3-0.2,0.6-0.4,0.8-0.6c0.2-0.2,0.3-0.4,0.4-0.7c0.1-0.2,0.1-0.5,0.1-0.7c0-0.2,0-0.4-0.1-0.6
		s-0.2-0.4-0.4-0.6c-0.2-0.2-0.4-0.3-0.7-0.4C171.1,31.5,170.8,31.5,170.3,31.5z"/>
	<path d="M184.1,38.9c-0.3,0.7-0.7,1.3-1.1,1.8c-0.4,0.6-0.8,1-1.2,1.4c-0.4,0.4-0.9,0.7-1.4,0.9c-0.5,0.2-1,0.3-1.5,0.3
		c-0.5,0-1-0.1-1.4-0.3c-0.4-0.2-0.7-0.5-1-0.9s-0.5-0.8-0.6-1.4c-0.1-0.5-0.2-1.1-0.2-1.8c0-0.7,0.1-1.4,0.3-2.1
		c0.2-0.7,0.5-1.4,0.8-2c0.3-0.6,0.7-1.2,1.2-1.7s1-1,1.6-1.4c0.6-0.4,1.2-0.7,1.8-0.9c0.6-0.2,1.3-0.3,2-0.3c0.5,0,1,0,1.4,0.1
		c0.4,0.1,0.9,0.2,1.3,0.5l-1.5,12.1h-0.6c-0.2,0-0.3,0-0.3-0.1c-0.1-0.1-0.1-0.2-0.1-0.3L184.1,38.9z M184.9,31.7
		c-0.3-0.1-0.5-0.2-0.8-0.2c-0.3,0-0.5-0.1-0.8-0.1c-0.8,0-1.6,0.2-2.4,0.6c-0.8,0.4-1.4,1-2,1.7s-1,1.5-1.4,2.4
		c-0.3,0.9-0.5,1.8-0.5,2.8c0,1.1,0.2,2,0.6,2.6s1,0.9,1.8,0.9c0.5,0,1-0.1,1.4-0.4c0.5-0.3,0.9-0.6,1.3-1.1
		c0.4-0.5,0.8-1.1,1.2-1.8c0.4-0.7,0.7-1.4,1-2.3L184.9,31.7z"/>
	<path d="M190.7,34.8c0.3-0.7,0.7-1.3,1.1-1.8c0.4-0.5,0.9-1,1.3-1.3c0.5-0.4,0.9-0.6,1.4-0.8c0.5-0.2,1-0.3,1.5-0.3
		c0.5,0,1,0.1,1.4,0.3c0.4,0.2,0.7,0.5,0.9,0.9c0.2,0.4,0.4,0.9,0.5,1.5s0.1,1.2,0,2l-0.9,8h-1.2l0.9-8c0.1-1.2,0.1-2.1-0.2-2.7
		c-0.3-0.6-0.9-1-1.7-1c-0.5,0-0.9,0.1-1.4,0.4c-0.5,0.2-0.9,0.6-1.4,1c-0.5,0.4-0.9,1-1.3,1.6c-0.4,0.6-0.7,1.3-1,2.1l-0.8,6.6
		h-1.2l1.5-12.6h0.5c0.3,0,0.4,0.2,0.4,0.5L190.7,34.8z"/>
	<path d="M204.4,30.8l-1.5,12.5h-1.2l1.5-12.5H204.4z M205.3,26.4c0,0.2,0,0.3-0.1,0.4c-0.1,0.1-0.1,0.2-0.2,0.3
		c-0.1,0.1-0.2,0.2-0.3,0.2c-0.1,0.1-0.3,0.1-0.4,0.1c-0.1,0-0.3,0-0.4-0.1c-0.1-0.1-0.2-0.1-0.3-0.2c-0.1-0.1-0.2-0.2-0.2-0.3
		c-0.1-0.1-0.1-0.3-0.1-0.4s0-0.3,0.1-0.4s0.1-0.3,0.2-0.4s0.2-0.2,0.3-0.2s0.3-0.1,0.4-0.1c0.1,0,0.3,0,0.4,0.1
		c0.1,0.1,0.2,0.1,0.3,0.2c0.1,0.1,0.2,0.2,0.2,0.4C205.3,26.1,205.3,26.3,205.3,26.4z"/>
</g>
<g>
	<g>
		<path d="M34.7,34.5v17.6c-3.2,0-6.2-0.9-8.8-2.3c-2.7-1.5-4.9-3.8-6.5-6.5L34.7,34.5z"/>
		<path class="st1" d="M34.7,34.5l-15.2,8.8c-1.5-2.6-2.4-5.6-2.4-8.8H34.7L34.7,34.5z"/>
		<path class="st2" d="M34.7,52.1V34.5l0,0h17.6C52.2,44.2,44.4,52.1,34.7,52.1z"/>
		<path class="st3" d="M52.2,34.5H34.7V16.9C44.4,16.9,52.2,24.8,52.2,34.5z"/>
		<path class="st4" d="M34.7,16.9v17.6H17.1v-0.1C17.1,24.7,25,16.9,34.7,16.9z"/>
	</g>
	<g>
		<path class="st5" d="M34.7,16.9c9.7,0,17.6,7.9,17.6,17.6"/>
		<polyline class="st5" points="34.7,52.1 34.7,34.5 34.7,34.5 		"/>
		<line class="st5" x1="34.7" y1="34.5" x2="17.1" y2="34.5"/>
		<path class="st5" d="M34.7,34.5h17.6c0,9.7-7.9,17.6-17.6,17.6c-3.2,0-6.2-0.9-8.8-2.3c-2.7-1.5-4.9-3.8-6.5-6.5
			c-1.5-2.6-2.4-5.6-2.4-8.8v-0.1c0-9.7,7.9-17.5,17.6-17.5L34.7,34.5L34.7,34.5z"/>
		<line class="st5" x1="19.4" y1="43.3" x2="34.7" y2="34.5"/>
	</g>
</g>
</svg>
